<?xml version="1.0" encoding="UTF-8"?>
<svg width="14px" height="17px" viewBox="0 0 14 17" version="1.1" xmlns="http://www.w3.org/2000/svg" xmlns:xlink="http://www.w3.org/1999/xlink">
    <!-- Generator: Sketch 52.3 (67297) - http://www.bohemiancoding.com/sketch -->
    <title>lock</title>
    <desc>Created with Sketch.</desc>
    <g id="EN" stroke="none" stroke-width="1" fill="none" fill-rule="evenodd">
        <g id="Login---EN" transform="translate(-89.000000, -371.000000)" fill="#9B9B9B" fill-rule="nonzero">
            <g id="Password-Feld" transform="translate(67.000000, 362.000000)">
                <g id="lock" transform="translate(22.000000, 9.000000)">
                    <path d="M6.61378817,11.5774439 L6.37722362,13.6034393 C6.36551668,13.7042201 6.39954766,13.8053692 6.47059789,13.881072 C6.54164811,13.9567413 6.64345982,14 6.75001758,14 L8.25001758,14 C8.35657534,14 8.45838704,13.9567413 8.52943727,13.881072 C8.6004875,13.8054027 8.63455364,13.7042536 8.62281154,13.6034393 L8.38624698,11.5774439 C8.77039633,11.311329 9,10.8903599 9,10.4285762 C9,9.64071143 8.32729041,9 7.5,9 C6.67270959,9 6,9.64071143 6,10.4285762 C6,10.8903599 6.22963883,11.311329 6.61378817,11.5774439 Z M7.5,9.71430485 C7.91343427,9.71430485 8.24998242,10.034828 8.24998242,10.4285762 C8.24998242,10.7023585 8.08664776,10.9475471 7.82371622,11.0689193 C7.68052593,11.1351802 7.59667893,11.279588 7.61425692,11.4298887 L7.83106382,13.2856952 L7.16897134,13.2856952 L7.38577824,11.4298887 C7.40335622,11.2795546 7.31950922,11.1351802 7.17631894,11.0689193 C6.9133874,10.9475471 6.75005273,10.7023585 6.75005273,10.4285762 C6.75001758,10.034828 7.08656573,9.71430485 7.5,9.71430485 Z" id="Shape"></path>
                    <path d="M13.611099,6.375 L12.4444323,6.375 L12.4444323,4.95832227 C12.4444323,2.22427734 10.002125,0 7,0 C3.997875,0 1.55556771,2.22427734 1.55556771,4.95832227 L1.55556771,6.375 L0.388901042,6.375 C0.173942708,6.375 0,6.53341211 0,6.72917773 L0,15.5833555 C0,16.3646582 0.697630208,17 1.55556771,17 L12.4444687,17 C13.3023698,17 14,16.3646582 14,15.5833223 L14,6.72917773 C14,6.53341211 13.8260573,6.375 13.611099,6.375 Z M2.33333333,4.95832227 C2.33333333,2.61474609 4.42666146,0.708322266 7,0.708322266 C9.57333854,0.708322266 11.6666667,2.61474609 11.6666667,4.95832227 L11.6666667,6.375 L10.888901,6.375 L10.888901,4.95832227 C10.888901,3.00554688 9.14422396,1.41664453 7,1.41664453 C4.85577604,1.41664453 3.11109896,3.00558008 3.11109896,4.95832227 L3.11109896,6.375 L2.33333333,6.375 L2.33333333,4.95832227 Z M10.111099,4.95832227 L10.111099,6.375 L3.88890104,6.375 L3.88890104,4.95832227 C3.88890104,3.39604883 5.2845625,2.125 7,2.125 C8.7154375,2.125 10.111099,3.39604883 10.111099,4.95832227 Z M13.2222344,15.5833223 C13.2222344,15.973791 12.8732187,16.2916445 12.4444687,16.2916445 L1.55556771,16.2916445 C1.12681771,16.2916445 0.777802083,15.973791 0.777802083,15.5833223 L0.777802083,7.08332227 L13.2222344,7.08332227 L13.2222344,15.5833223 Z" id="Shape"></path>
                </g>
            </g>
        </g>
    </g>
</svg>