<svg id="Logo" width='150pt' height='150pt' xmlns="http://www.w3.org/2000/svg" viewBox="0 0 538.5 513"><defs><style>.cls-1{fill:none;stroke:#1db954;stroke-linecap:round;stroke-linejoin:round;stroke-width:5px;}.cls-2{fill:#1db954;}</style></defs><title>SBLogo</title><path class="cls-1" d="M347.17,27.06c86,33.27,147.33,119.86,147.33,221.44,0,130.34-101,236-225.5,236S43.5,378.84,43.5,248.5C43.5,148.42,103,62.9,187,28.58"/><path class="cls-2" d="M60,322s-5-17,0-32,23-41,23-41-1,39-3,52c-1.11,7.2-6,21-16,32C64,333,62,327,60,322Z"/><path class="cls-2" d="M50,272s-3-26,4-40,34-39,34-39-13,44-17,51-21,28-21,28"/><path class="cls-2" d="M58,184s5-14,16-22,34-19,34-19-21.13,30.9-25,36c-9.5,12.5-30,26-30,26Z"/><path class="cls-2" d="M71,146s2,2,7,0a135.61,135.61,0,0,0,30-18c11-9,27-25,27-25s-24,3-37,11-18,14-18,14Z"/><path class="cls-2" d="M101,97s17,2,25-2,43-20,43-20a96.38,96.38,0,0,0-37,0C112,79,101,97,101,97Z"/><path class="cls-2" d="M140,60s4,5,18,6,27-6,39-6h14s-13-11-36-11S140,60,140,60Z"/><path class="cls-2" d="M174.07,34.37S174.12,23.63,182,17C201,1,224,0,224,0s-9.68,15.31-17.22,21.6C186.5,38.5,174.07,34.37,174.07,34.37Z"/><path class="cls-2" d="M366,34.37s-.06-10.74-7.93-17.37c-19-16-42-17-42-17s9.68,15.31,17.22,21.6C353.57,38.5,366,34.37,366,34.37Z"/><path class="cls-2" d="M131,64s-9-11-1-25S157,8,166,7c0,0-3,27-17.52,42S131,64,131,64Z"/><path class="cls-2" d="M86,103s-4-17-2-31,26-39,26-39,2,17,0,32c-.4,3-4.36,18.66-10,25C92,99,86,103,86,103Z"/><path class="cls-2" d="M59,154s-10-9-10-23A127.21,127.21,0,0,1,62,76s8,19,9,27-1,34.34-1,34.34S66,152,59,154Z"/><path class="cls-2" d="M26,136s10,13,14,21c6.83,13.65,11,33,11,33l-5,25a25.15,25.15,0,0,1-13-9,50.84,50.84,0,0,1-8-19C23,171,26,136,26,136Z"/><path class="cls-2" d="M5,205s13.13,9.64,17,14c8,9,21.5,33.5,21.5,33.5L47,282s-8,0-17-10-16-20-19-35S5,205,5,205Z"/><path class="cls-2" d="M53.65,318.71S43.52,307.52,38,302c-5-5-38-26-38-26s12,32,26,48c8.86,10.12,30,25,35,23S53.65,318.71,53.65,318.71Z"/><path class="cls-2" d="M92,304s8,43,10,50,0,36-5,37-12-13-12-13-5-19-4-32C81.69,337,92,304,92,304Z"/><path class="cls-2" d="M85.64,385.9S73,371,60,367c-10.29-3.17-41-14-41-14s21,34,45,47c23,11,34.66,3.16,34.66,3.16Z"/><path class="cls-2" d="M146,450s-19-18-34-21-59-7-59-7,31,26,53,32A57.68,57.68,0,0,0,146,450Z"/><path class="cls-2" d="M115,358s-2.25,38.76,0,47c3,11,8,17,8,17l18,17s4,0,2-16C139,397,115,358,115,358Z"/><path class="cls-2" d="M151,403s33,31,41,43c3.23,4.85,7,13,6,21s-24-7-24-7S157,447,151,403Z"/><path class="cls-2" d="M197,434a50.72,50.72,0,0,0,6,14c7,11,20.31,24.16,24,26,12,6,29,4,29,4s-2.1-11.88-8-17C233,448,197,434,197,434Z"/><path class="cls-2" d="M262,484a43.36,43.36,0,0,1-14,16c-13,9-37,11-37,11l-38,2s32.12-17.72,44-23c9-4,20-9,27-9S262,484,262,484Z"/><path class="cls-2" d="M105,478s35-9,52-10,46,8,46,8-4,12-27,15S105,478,105,478Z"/><path class="cls-2" d="M478.5,322s5-17,0-32-23-41-23-41,1,39,3,52c1.11,7.2,6,21,16,32C474.5,333,476.5,327,478.5,322Z"/><path class="cls-2" d="M488.5,272s3-26-4-40-34-39-34-39,13,44,17,51,21,28,21,28"/><path class="cls-2" d="M480.5,184s-5-14-16-22-34-19-34-19,21,31,25,36c2.5,3.12,30,26,30,26Z"/><path class="cls-2" d="M467.5,146s-2,2-7,0a135.61,135.61,0,0,1-30-18c-11-9-27-25-27-25s24,3,37,11,18,14,18,14Z"/><path class="cls-2" d="M437.5,97s-17,2-25-2-43-20-43-20a96.38,96.38,0,0,1,37,0C426.5,79,437.5,97,437.5,97Z"/><path class="cls-2" d="M398.5,60s-4,5-18,6-27-6-39-6h-14s13-11,36-11S398.5,60,398.5,60Z"/><path class="cls-2" d="M407.5,64s9-11,1-25-27-31-36-32c0,0,3,27,17.52,42S407.5,64,407.5,64Z"/><path class="cls-2" d="M452.5,103s4-17,2-31-26-39-26-39-2,17,0,32c.4,3,4.36,18.66,10,25C446.5,99,452.5,103,452.5,103Z"/><path class="cls-2" d="M479.5,154s10-9,10-23a127.21,127.21,0,0,0-13-55s-8,19-9,27,1,34.34,1,34.34S472.5,152,479.5,154Z"/><path class="cls-2" d="M512.5,136s-10,13-14,21c-6.83,13.65-11,33-11,33l5,25a25.15,25.15,0,0,0,13-9,50.84,50.84,0,0,0,8-19C515.5,171,512.5,136,512.5,136Z"/><path class="cls-2" d="M533.5,205s-13.13,9.64-17,14c-8,9-21.5,33.5-21.5,33.5L491.5,282s8,0,17-10,16-20,19-35S533.5,205,533.5,205Z"/><path class="cls-2" d="M484.85,318.71S495,307.52,500.5,302c5-5,38-26,38-26s-12,32-26,48c-8.86,10.12-30,25-35,23S484.85,318.71,484.85,318.71Z"/><path class="cls-2" d="M446.5,304s-8,43-10,50,0,36,5,37,12-13,12-13,5-19,4-32C456.81,337,446.5,304,446.5,304Z"/><path class="cls-2" d="M452.86,385.9S465.5,371,478.5,367c10.29-3.17,41-14,41-14s-21,34-45,47c-23,11-34.66,3.16-34.66,3.16Z"/><path class="cls-2" d="M392.5,450s19-18,34-21,59-7,59-7-31,26-53,32A57.68,57.68,0,0,1,392.5,450Z"/><path class="cls-2" d="M423.5,358s2.25,38.76,0,47c-3,11-8,17-8,17l-18,17s-4,0-2-16C399.5,397,423.5,358,423.5,358Z"/><path class="cls-2" d="M387.5,403s-33,31-41,43c-3.23,4.85-7,13-6,21s24-7,24-7S381.5,447,387.5,403Z"/><path class="cls-2" d="M341.5,434a50.72,50.72,0,0,1-6,14c-7,11-20.31,24.16-24,26-12,6-29,4-29,4s2.1-11.88,8-17C305.5,448,341.5,434,341.5,434Z"/><path class="cls-2" d="M276.5,484a43.36,43.36,0,0,0,14,16c13,9,37,11,37,11l38,2s-32.12-17.72-44-23c-9-4-20-9-27-9S276.5,484,276.5,484Z"/><path class="cls-2" d="M433.5,478s-35-9-52-10-46,8-46,8,4,12,27,15S433.5,478,433.5,478Z"/><circle class="cls-2" cx="281.5" cy="56.5" r="14"/><circle class="cls-2" cx="321" cy="142" r="12"/><circle class="cls-2" cx="169" cy="200" r="16"/><path class="cls-2" d="M326.88,113.43l-.84,1.3a6.43,6.43,0,0,1-8.87,1.89l-33.89-22c-.25.3-.52.6-.81.89l-20.65,20.65,24.39,10.18A8.34,8.34,0,0,1,291,132l8.08,37.33a8.37,8.37,0,1,1-16.23,4.06L277,144.06a8.32,8.32,0,0,0-4.87-5.68l-8.23-2.47-.17-.08a9.62,9.62,0,0,1-.43,7.69L247.92,174a8.06,8.06,0,0,1-7.2,4.42,8,8,0,0,1-3.6-.86,8.07,8.07,0,0,1-3.55-10.8l12.65-25.06L233,126a16.21,16.21,0,0,1,.14-22.7l28.55-28.55a12.11,12.11,0,0,1,16.44-.58L325,104.56A6.43,6.43,0,0,1,326.88,113.43Z"/><circle class="cls-2" cx="381" cy="207" r="11"/><path class="cls-2" d="M416.74,197.4a4.57,4.57,0,0,0-5.63,2.12l-4.7,11.72a2.75,2.75,0,0,1-1.19,1.15l-12.8,6.4a2.76,2.76,0,0,1-.9.27c-1.77.21-8.1.94-11.52.94s-16.79,3.58-20.84,4.68a2.77,2.77,0,0,1-2.19-.33l-8.83-5a2.75,2.75,0,0,1-1-3.6l9.34-15c5.12.69,11.33-2.67,15.35-8.78,5-7.68,4.73-16.82-.72-20.4s-14-.26-19,7.42c-4.6,7-4.74,15.21-.61,19.32a10.26,10.26,0,0,0-.8,1.13l-10.62,17.7a2.74,2.74,0,0,0,.41,3.35l13.62,13.62a2.78,2.78,0,0,0,2.1.8l13.23-.78a2.75,2.75,0,0,1,2.88,2.37l3.59,26.94a2.69,2.69,0,0,1-.07,1.06l-8.72,37.13A5.21,5.21,0,0,0,367,303a5.28,5.28,0,0,0,10.14,2.08l11.76-32.44a1.27,1.27,0,0,1,2.32,0l3.48,8.67a2.67,2.67,0,0,1,.22,1.5l-3.2,19.16a6.27,6.27,0,0,0,0,.74,5.43,5.43,0,0,0,10.68,1.41l6.43-23.16a2.75,2.75,0,0,0-.14-1.81l-6.44-14.74a2.73,2.73,0,0,1-.22-.79L398.22,230a2.75,2.75,0,0,1,1.63-2.82l13.08-5.72a2.74,2.74,0,0,0,1.47-1.57l5-16.63a4.59,4.59,0,0,0-2.69-5.87Zm-62.39-16.93c3.92-6,10.52-8.53,14.74-5.75s4.48,9.86.56,15.81-10.52,8.53-14.74,5.75S350.43,186.42,354.35,180.47Z"/><circle class="cls-2" cx="410" cy="187" r="4"/><circle class="cls-2" cx="283" cy="309" r="14"/><path class="cls-2" d="M263.4,320.55l23.2,9.11a7.82,7.82,0,0,1,4.56,4.8L299,358l4.27,25.08a5.23,5.23,0,0,1-4.15,5.89h0a5.23,5.23,0,0,1-6.15-4.1L288,362l-6-13-19.81,53.48a3.14,3.14,0,0,1-.55.94L239.05,430.1a6.14,6.14,0,0,1-8.81.67h0a6.14,6.14,0,0,1-.81-8.3l18.2-23a2.41,2.41,0,0,0,.47-1l2.51-12.54a.58.58,0,0,0-1-.53l-18.27,18.27a5.77,5.77,0,0,1-8.42-.28h0a5.77,5.77,0,0,1-.43-7l16.23-22.94a3.47,3.47,0,0,0,.42-.8L253,335H218.81a4.81,4.81,0,0,1-4.81-4.81h0a4.81,4.81,0,0,1,4.16-4.76l42.35-5.23A5.78,5.78,0,0,1,263.4,320.55Z"/><path class="cls-2" d="M283,404a14,14,0,1,0,14,14A14,14,0,0,0,283,404Zm3.35,2.85-2.2,4.4h-3.3l-2.2-4.4ZM271,422.35v-7.7l3.3,3.3Zm7.7,7.8,2.2-4.4h3.3l2.2,4.4ZM285.1,423h-5.2l-2.6-4.5,2.6-4.5h5.2l2.6,4.5Zm5.65-5,3.3-3.3v7.7Z"/><path class="cls-2" d="M137.16,225.58l21.15-5.07a28.76,28.76,0,0,1,5.43-.52h5.82a18.81,18.81,0,0,1,10,2.91l31.33,19.89a6.39,6.39,0,0,1,2.2,8.46h0a6.39,6.39,0,0,1-8.8,2.47l-21.17-12.48a1.32,1.32,0,0,0-2,1.24L182.92,264a6.54,6.54,0,0,0,.43,1.87l8.87,22.58a6.7,6.7,0,0,1-2,7.61l-28,24.72a7.74,7.74,0,0,1-11.13-1.32h0a7.74,7.74,0,0,1,.85-10.25l19.39-19.61a1.39,1.39,0,0,0,.3-1.49l-1.22-3a1.14,1.14,0,0,0-1.53-.61l-40,18.34a7.92,7.92,0,0,1-10.37-3.67h0a7.92,7.92,0,0,1,3.63-10.67l29.21-14.24a4.19,4.19,0,0,0,2.34-4.12l-2.61-31.28a1.74,1.74,0,0,0-2-1.58l-16.08,2.41a3.49,3.49,0,0,1-3.33-1.38l-15.07-20.51a4.67,4.67,0,0,1,1.1-6.5h0a4.67,4.67,0,0,1,6,.5l11.65,12.65A4.15,4.15,0,0,0,137.16,225.58Z"/><path class="cls-2" d="M131,184a15,15,0,1,0,15,15A15,15,0,0,0,131,184Zm3.5,3.5-4,4-4-4Zm-8,24,4-4,4,4Zm11.32-9.68A4,4,0,0,1,135,203h-8a4,4,0,0,1-4-4,4,4,0,0,1,4-4h8a4,4,0,0,1,4,4A4,4,0,0,1,137.82,201.82Z"/></svg>