<svg viewBox="0 -64 480 480" xmlns="http://www.w3.org/2000/svg"><path d="m480 8c0-4.417969-3.582031-8-8-8h-464c-4.417969 0-8 3.582031-8 8v335c0 4.417969 3.582031 8 8 8h464c4.417969 0 8-3.582031 8-8zm-55.832031 328h-176.167969v-99.800781c30.28125-3.890625 52.960938-29.667969 52.960938-60.199219s-22.679688-56.308594-52.960938-60.199219v-99.800781h176.167969c3.316406 20.53125 19.328125 36.679688 39.832031 40.175781v37.824219h-69.136719c-2.089843-.03125-4.101562.78125-5.585937 2.257812-1.480469 1.472657-2.300782 3.484376-2.277344 5.578126v148.328124c-.023438 2.09375.796875 4.105469 2.277344 5.578126 1.484375 1.476562 3.496094 2.289062 5.585937 2.257812h69.136719v37.800781c-20.507812 3.503907-36.515625 19.660157-39.832031 40.199219zm-408.167969-40.023438v-37.976562h68.8125c4.421875.089844 8.085938-3.414062 8.1875-7.835938v-148.328124c-.101562-4.421876-3.765625-7.925782-8.1875-7.835938h-68.8125v-38c20.300781-3.578125 36.09375-19.640625 39.320312-40h176.679688v99.867188c-30.046875 4.128906-52.429688 29.804687-52.429688 60.132812s22.382813 56.003906 52.429688 60.132812v99.867188h-176.679688c-3.226562-20.363281-19.019531-36.4375-39.320312-40.023438zm0-153.976562h29v68h-29zm0 84h36.894531c2.105469.058594 4.148438-.726562 5.671875-2.183594 1.523438-1.457031 2.398438-3.464844 2.433594-5.570312v-84.492188c-.035156-2.105468-.910156-4.113281-2.433594-5.570312-1.523437-1.457032-3.566406-2.242188-5.671875-2.183594h-36.894531v-16h61v132h-61zm216-6.066406c-21.136719-3.96875-36.453125-22.425782-36.453125-43.933594s15.316406-39.964844 36.453125-43.933594zm16-87.960938c21.382812 3.75 36.976562 22.320313 36.976562 44.027344s-15.59375 40.277344-36.976562 44.027344zm178.785156-5.972656c-2.074218-.046875-4.078125.753906-5.546875 2.21875-1.46875 1.460938-2.277343 3.460938-2.238281 5.535156v84.492188c-.039062 2.074218.769531 4.074218 2.238281 5.535156 1.46875 1.464844 3.472657 2.265625 5.546875 2.21875h37.214844v16h-61v-132h61v16zm37.214844 16v68h-29v-68zm0-102.15625c-11.554688-3.125-20.523438-12.238281-23.464844-23.84375h23.464844zm-425.066406-23.84375c-2.816406 11.429688-11.585938 20.449219-22.933594 23.585938v-23.585938zm-22.933594 296.390625c11.351562 3.148437 20.117188 12.171875 22.9375 23.609375h-22.9375zm424.535156 23.609375c2.9375-11.609375 11.90625-20.730469 23.464844-23.867188v23.867188zm0 0"/></svg>