<?xml version="1.0" encoding="UTF-8"?>
<svg width="13px" height="17px" viewBox="0 0 13 17" version="1.1" xmlns="http://www.w3.org/2000/svg" xmlns:xlink="http://www.w3.org/1999/xlink">
    <!-- Generator: Sketch 52.3 (67297) - http://www.bohemiancoding.com/sketch -->
    <title>avatar</title>
    <desc>Created with Sketch.</desc>
    <g id="EN" stroke="none" stroke-width="1" fill="none" fill-rule="evenodd">
        <g id="Login---EN" transform="translate(-91.000000, -317.000000)" fill="#9B9B9B">
            <g id="Username-Field" transform="translate(67.000000, 308.000000)">
                <g id="avatar" transform="translate(24.000000, 9.000000)">
                    <path d="M6.44461408,9 C6.46139769,9 6.4781813,9 6.49832164,9 C6.50503508,9 6.51174853,9 6.51846197,9 C6.52853214,9 6.54195903,9 6.5520292,9 C7.53554892,8.98270561 8.33109217,8.6264412 8.91851863,7.94504228 C10.2108568,6.44388932 9.99602658,3.87048424 9.97252952,3.62490392 C9.88861146,1.78132206 9.04271736,0.899308224 8.34451906,0.487701768 C7.82422706,0.179861645 7.21666027,0.0138355111 6.53860231,0 L6.51510525,0 C6.51174853,0 6.50503508,0 6.50167836,0 L6.48153803,0 C6.10894182,0 5.37717629,0.0622598002 4.67562127,0.473866257 C3.97070953,0.885472713 3.11138854,1.76748655 3.02747048,3.62490392 C3.00397342,3.87048424 2.78914317,6.44388932 4.08148137,7.94504228 C4.6655511,8.6264412 5.46109436,8.98270561 6.44461408,9 Z M3.92371541,3.71137586 C3.92371541,3.70099923 3.92707213,3.6906226 3.92707213,3.68370484 C4.03784398,1.20368947 5.74641578,0.93735588 6.4781813,0.93735588 L6.49160819,0.93735588 C6.49832164,0.93735588 6.50839181,0.93735588 6.51846197,0.93735588 C7.42477707,0.958109147 8.96551274,1.3385857 9.06957114,3.68370484 C9.06957114,3.69408148 9.06957114,3.70445811 9.07292787,3.71137586 C9.07628459,3.73558801 9.31125517,6.0876249 8.24381739,7.32590315 C7.82087034,7.8170638 7.25694094,8.05918524 6.51510525,8.066103 C6.50839181,8.066103 6.50503508,8.066103 6.49832164,8.066103 C6.49160819,8.066103 6.48825147,8.066103 6.48153803,8.066103 C5.74305906,8.05918524 5.17577294,7.8170638 4.75618261,7.32590315 C3.69210155,6.09454266 3.92035869,3.73212913 3.92371541,3.71137586 Z" id="Shape" fill-rule="nonzero"></path>
                    <path d="M12.9991137,12.5601437 C12.9991137,12.5556725 12.9991137,12.5512013 12.9991137,12.5467302 C12.9991137,12.510961 12.9959487,12.4751917 12.9959487,12.4349513 C12.9769593,11.5496627 12.9358156,9.47951825 11.5622482,8.81778739 C11.5527535,8.81331624 11.5400939,8.80884508 11.5305991,8.80437393 C10.1032284,8.29019117 8.91639015,7.12769102 8.90373054,7.11427755 C8.71067152,6.92201791 8.44481976,6.98908523 8.30872897,7.26182565 C8.17263819,7.53456607 8.22011172,7.91014304 8.41317074,8.10240268 C8.46697407,8.15605654 9.72660504,9.39456631 11.3027262,9.96687408 C12.0401484,10.3379799 12.1224358,11.4512974 12.1445901,12.4707206 C12.1445901,12.510961 12.1445901,12.5467302 12.147755,12.5824994 C12.1509199,12.9849033 12.1319305,13.6063938 12.0812921,13.9640861 C11.568578,14.3754323 9.55886524,15.7972595 6.50156996,15.7972595 C3.4569343,15.7972595 1.43456196,14.3709612 0.91868294,13.959615 C0.868044509,13.6019226 0.845890196,12.9804322 0.852219999,12.5780283 C0.852219999,12.542259 0.855384901,12.5064898 0.855384901,12.4662494 C0.877539215,11.4468262 0.959826665,10.3335087 1.69724882,9.96240293 C3.27336998,9.39009516 4.53300096,8.14711423 4.58680429,8.09793153 C4.77986331,7.90567189 4.82733684,7.53009492 4.69124605,7.2573545 C4.55515527,6.98461408 4.28930351,6.91754676 4.09624449,7.1098064 C4.08358488,7.12321986 2.90307646,8.28572001 1.46937588,8.79990277 C1.45671627,8.80437393 1.44722156,8.80884508 1.43772686,8.81331624 C0.064159416,9.47951825 0.0230156908,11.5496627 0.00402627915,12.4304802 C0.00402627915,12.4707206 0.00402627915,12.5064898 0.000861377205,12.542259 C0.000861377205,12.5467302 0.000861377205,12.5512013 0.000861377205,12.5556725 C-0.00230352474,12.7881725 -0.00546842668,13.9819708 0.162271376,14.5811055 C0.193920396,14.6973555 0.250888631,14.7957209 0.326846277,14.8627882 C0.421793335,14.9522113 2.69735783,17 6.50473487,17 C10.3121119,17 12.5876764,14.9477401 12.6826235,14.8627882 C12.7554162,14.7957209 12.8155493,14.6973555 12.8471984,14.5811055 C13.0054435,13.9864419 13.0022786,12.7926437 12.9991137,12.5601437 Z" id="Path"></path>
                </g>
            </g>
        </g>
    </g>
</svg>